<svg width="207" height="30" viewBox="0 0 207 30" fill="none" xmlns="http://www.w3.org/2000/svg">
<path d="M15.6159 27.7729H13.0274V25.1676H10.4389V27.7309H7.85038V25.1676H10.4389V22.6044H13.0274H15.6159V20.0411H13.0274V17.4779H10.4389V20.0411H7.85038V22.6044H5.26188V25.1676H2.5885V22.6044H0V20.0411H2.5885V17.4779H0V14.9146H2.5885V17.4779H5.17701V20.0411H7.76551V17.4779H10.354V14.9146H12.9425V12.3514H15.531V9.78817H18.1195V12.3514H20.7929V9.78817H31.1893H35.5601V27.8149H31.2318V13.3179H19.9442V27.7729H15.6159ZM188.791 4.19946H200.376V7.35099H188.791V4.19946ZM206.274 27.7729V9.74615H198.975L187.9 24.2011H187.306V9.74615H182.893V27.7729H190.361L201.309 13.3179H201.903V27.7729H206.274ZM161.081 27.7729V9.74615H179.668V13.1498H165.41V17.0997H179.201V20.2512H165.41V24.3692H179.668V27.7729H161.081ZM139.228 9.74615H158.875V13.3179H151.194V27.7729H146.823V13.3179H139.228V9.74615ZM118.18 27.7729V9.74615H136.766V13.1498H122.508V17.0997H136.3V20.2512H122.508V24.3692H136.766V27.7729H118.18ZM114.913 9.74615H106.808L100.782 24.2011H100.527L94.5016 9.74615H86.3966V27.7729H90.7674V13.3179H91.3614L97.5993 27.7729H103.795L110.033 13.3179H110.627V27.7729H114.997V9.74615H114.913ZM2.5885 22.6044H5.17701V20.0411H2.5885V22.6044ZM15.6159 25.1676H18.2044V22.6044H15.6159V25.1676ZM15.6159 17.4779H18.2044V14.9146H15.6159V17.4779ZM5.21944 12.3094H7.80794V9.74615H10.3964V12.3094H7.80794V14.8726H5.21944V12.3094ZM38.3608 27.7729V9.74615H50.7516C51.9398 9.74615 52.9158 9.87221 53.7221 10.0823C54.5283 10.2924 55.1648 10.6706 55.674 11.1748C56.1833 11.6791 56.5652 12.3094 56.7773 13.1078C57.0319 13.9062 57.1592 14.8726 57.1592 16.0492C57.1592 17.5619 56.9471 18.7805 56.4803 19.747C56.056 20.6714 55.377 21.3858 54.4434 21.806C53.5099 22.2262 52.3217 22.4363 50.7941 22.4363H42.6891V27.7729H38.3608ZM42.6891 18.8646H49.9454C50.6668 18.8646 51.2184 18.7805 51.6428 18.5704C52.0671 18.3603 52.3642 18.0662 52.5339 17.688C52.7036 17.2678 52.7885 16.7635 52.7885 16.0912C52.7885 15.1248 52.5763 14.4524 52.1944 14.0322C51.8125 13.612 51.0487 13.3599 49.9878 13.3599H42.7315V18.8646H42.6891Z" fill="white"/>
<path d="M76.0851 28.6974C74.515 29.5378 73.6239 30 71.7143 30C63.6093 30 59.96 24.8735 59.96 19.4109C59.96 13.9482 64.6278 11.469 67.1314 8.23347C68.6166 6.30054 68.2771 4.45164 66.1554 1.97244C65.9008 1.6783 65.6886 1.42618 65.2218 0.837891C71.2051 1.25809 81.0075 8.6957 79.0555 17.4779C78.5038 19.9571 76.0002 22.1842 72.7752 22.2262C79.3525 16.3854 72.6054 9.9563 71.587 9.19994C70.9929 13.402 67.683 14.5365 65.5189 18.3604C63.6942 21.4699 65.4764 28.6974 76.0851 28.6974Z" fill="#D64D4D"/>
<path d="M77.5272 7.81335C84.5289 17.7722 78.5881 26.4284 66.8337 23.655C67.1732 24.5374 70.7802 27.731 75.8723 26.8906C85.5474 24.7896 85.8444 14.8308 77.5272 7.81335Z" fill="#D64D4D"/>
</svg>
