<?xml version="1.0" standalone="no"?>
<!DOCTYPE svg PUBLIC "-//W3C//DTD SVG 20010904//EN"
 "http://www.w3.org/TR/2001/REC-SVG-20010904/DTD/svg10.dtd">
<svg version="1.0" xmlns="http://www.w3.org/2000/svg"
 width="216.000000pt" height="163.000000pt" viewBox="0 0 216.000000 163.000000"
 preserveAspectRatio="xMidYMid meet">
<metadata>
Created by potrace 1.15, written by Peter Selinger 2001-2017
</metadata>
<g transform="translate(0.000000,163.000000) scale(0.100000,-0.100000)"
fill="#000000" stroke="none">
<path d="M1760 1495 l-135 -135 143 0 142 0 0 55 0 55 50 0 51 0 -3 -122 -3
-122 -53 -30 -53 -31 7 -90 c3 -49 7 -91 8 -92 1 -1 47 26 104 60 148 89 142
75 142 355 l0 232 -133 0 -132 0 -135 -135z"/>
<path d="M1548 802 c-74 -9 -107 -120 -52 -176 22 -21 36 -26 78 -26 62 0 90
18 106 65 13 39 1 94 -25 115 -18 15 -72 26 -107 22z"/>
<path d="M1220 700 l0 -100 35 0 c34 0 35 1 35 37 0 34 1 35 18 20 25 -23 37
-21 55 6 16 21 16 21 16 -20 1 -42 2 -43 36 -43 l35 0 0 100 0 100 -29 0 c-22
0 -37 -10 -59 -36 l-30 -36 -27 36 c-20 27 -35 36 -56 36 l-29 0 0 -100z"/>
<path d="M1700 700 l0 -100 38 0 c32 0 41 6 62 38 l25 37 3 -37 c3 -37 4 -38
43 -38 l39 0 0 100 0 100 -37 0 c-34 0 -41 -5 -65 -43 l-28 -42 0 43 0 42 -40
0 -40 0 0 -100z"/>
<path d="M30 552 c-26 -26 -30 -38 -30 -82 0 -41 5 -56 26 -76 21 -22 32 -25
70 -22 47 3 53 -2 29 -22 -10 -8 -31 -11 -60 -7 -40 6 -45 4 -45 -13 0 -25 29
-40 75 -40 27 0 44 8 66 29 29 29 29 31 29 141 l0 111 -32 -1 c-18 0 -47 2
-65 6 -27 5 -37 1 -63 -24z"/>
<path d="M258 565 c-36 -20 -48 -44 -48 -98 0 -60 40 -97 105 -97 61 0 95 31
102 91 5 40 2 50 -23 78 -35 39 -94 50 -136 26z"/>
<path d="M1121 566 c-58 -32 -69 -119 -22 -167 25 -24 38 -29 78 -29 57 0 90
18 80 45 -5 12 -12 15 -25 10 -41 -18 -77 -17 -96 4 l-19 21 71 0 72 0 0 38
c-1 74 -73 115 -139 78z"/>
<path d="M430 470 l0 -100 25 0 c23 0 25 4 25 48 l1 47 40 -47 c32 -37 48 -48
70 -48 37 0 37 9 -2 46 -54 51 -55 60 -14 110 l36 44 -30 0 c-22 0 -38 -10
-65 -42 l-36 -43 0 43 c0 38 -2 42 -25 42 l-25 0 0 -100z"/>
<path d="M622 490 c6 -103 22 -123 90 -118 51 3 58 -2 33 -22 -10 -8 -31 -11
-59 -7 -35 5 -45 3 -50 -10 -10 -26 11 -38 69 -38 43 0 59 5 77 23 21 20 23
34 26 137 l4 115 -26 0 c-25 0 -26 -1 -26 -70 0 -65 -2 -71 -25 -82 -21 -9
-28 -8 -45 7 -16 14 -20 31 -20 82 0 61 -1 63 -26 63 l-27 0 5 -80z"/>
<path d="M830 470 l0 -100 25 0 c24 0 25 3 25 62 l0 62 32 -43 c35 -48 33 -49
80 20 17 24 17 23 17 -38 1 -56 3 -63 21 -63 19 0 20 7 20 100 0 97 -1 100
-22 100 -16 0 -32 -14 -53 -44 l-29 -43 -34 43 c-23 31 -40 44 -57 44 -25 0
-25 0 -25 -100z"/>
<path d="M1280 470 l0 -100 25 0 c23 0 25 4 25 45 l0 45 45 0 45 0 0 -45 c0
-41 2 -45 25 -45 l25 0 0 100 0 100 -25 0 c-22 0 -25 -4 -25 -40 l0 -40 -45 0
-45 0 0 40 c0 36 -2 40 -25 40 l-25 0 0 -100z"/>
<path d="M1480 550 c0 -16 7 -20 35 -20 l35 0 0 -80 c0 -79 0 -80 25 -80 25 0
25 1 25 80 l0 80 35 0 c28 0 35 4 35 20 0 19 -7 20 -95 20 -88 0 -95 -1 -95
-20z"/>
<path d="M1680 470 l0 -100 54 0 c70 0 100 22 100 75 0 44 -22 65 -71 65 -30
0 -33 3 -33 30 0 25 -4 30 -25 30 l-25 0 0 -100z"/>
<path d="M1540 106 c0 -7 5 -28 11 -46 9 -26 9 -34 -2 -41 -17 -10 -5 -23 15
-16 8 3 18 23 22 44 l7 38 9 -27 c8 -23 15 -28 44 -28 29 0 35 4 40 28 10 47
12 48 13 10 1 -52 21 -48 22 5 l0 42 15 -39 c10 -29 11 -42 3 -53 -14 -16 -6
-28 14 -20 16 6 44 104 33 114 -3 4 -13 -2 -21 -13 -13 -17 -14 -17 -15 -1 0
13 -9 17 -39 17 -37 0 -40 -2 -43 -32 -4 -42 -38 -54 -38 -14 0 16 6 26 15 26
8 0 15 5 15 10 0 15 -47 12 -53 -2 -4 -10 -6 -10 -6 0 -1 19 -21 14 -21 -5 -1
-17 -1 -17 -14 0 -16 20 -26 22 -26 3z"/>
</g>
</svg>
